<svg xmlns="http://www.w3.org/2000/svg" xmlns:xlink="http://www.w3.org/1999/xlink" zoomAndPan="magnify" preserveAspectRatio="xMidYMid meet" version="1.2" viewBox="17.74 78.18 154.93 36.34"><defs/><g id="7990aedc2f"><path style=" stroke:none;fill-rule:nonzero;fill:#000000;fill-opacity:1;" d="M 26.691406 87.160156 C 26.753906 87.148438 26.769531 87.152344 26.832031 87.171875 C 26.914062 87.324219 26.859375 92.152344 26.871094 92.835938 C 26.101562 93.101562 25.449219 93.433594 24.867188 94.011719 C 24.25 94.636719 23.824219 95.421875 23.636719 96.277344 C 23.394531 97.351562 23.503906 99.058594 23.507812 100.191406 L 23.503906 106.253906 C 24.769531 106.222656 26.035156 106.25 27.300781 106.25 C 29.109375 106.25 30.921875 106.234375 32.730469 106.257812 C 32.761719 105.355469 32.734375 104.445312 32.734375 103.546875 C 33.21875 103.066406 33.753906 102.628906 34.25 102.160156 C 35.664062 100.828125 37.082031 99.492188 38.523438 98.1875 C 38.554688 99.59375 38.535156 101.003906 38.535156 102.410156 L 38.535156 112.089844 L 24.484375 112.089844 C 22.242188 112.09375 19.984375 112.039062 17.746094 112.105469 L 17.75 100.949219 L 17.746094 97.757812 C 17.746094 96.621094 17.710938 95.5 17.9375 94.382812 C 18.226562 92.992188 18.851562 91.699219 19.753906 90.605469 C 21.488281 88.5 24.027344 87.421875 26.691406 87.160156 Z M 26.691406 87.160156 "/><path style=" stroke:none;fill-rule:nonzero;fill:#000000;fill-opacity:1;" d="M 39.402344 80.15625 C 42.105469 80.3125 44.710938 81.234375 46.660156 83.171875 C 47.925781 84.449219 48.816406 86.050781 49.234375 87.800781 C 49.527344 89.058594 49.488281 90.335938 49.488281 91.617188 L 49.488281 94.957031 L 49.492188 105.792969 C 47.910156 105.75 46.316406 105.785156 44.730469 105.785156 L 40.417969 105.789062 L 40.414062 99.914062 C 41.507812 99.910156 42.605469 99.894531 43.699219 99.921875 C 43.671875 99.195312 43.691406 98.460938 43.691406 97.734375 C 43.691406 95.585938 43.742188 93.429688 43.699219 91.285156 C 43.667969 89.792969 43.195312 88.363281 42.09375 87.320312 C 40.871094 86.164062 39.457031 85.902344 37.835938 85.941406 C 37.890625 85.273438 37.855469 84.578125 37.855469 83.90625 L 37.855469 80.160156 C 38.371094 80.164062 38.886719 80.164062 39.402344 80.15625 Z M 39.402344 80.15625 "/><path style=" stroke:none;fill-rule:nonzero;fill:#000000;fill-opacity:1;" d="M 28.507812 78.648438 C 29.167969 78.625 29.84375 78.65625 30.503906 78.65625 L 34.886719 78.65625 L 34.886719 91.890625 C 34.886719 93.695312 34.925781 95.507812 34.882812 97.3125 C 34.539062 97.679688 34.148438 98.015625 33.78125 98.359375 L 31.773438 100.238281 C 30.652344 101.222656 29.582031 102.285156 28.484375 103.296875 C 28.527344 102.464844 28.503906 101.628906 28.503906 100.792969 L 28.503906 80.496094 C 28.5 79.886719 28.472656 79.257812 28.507812 78.648438 Z M 28.507812 78.648438 "/><g style="fill:#000000;fill-opacity:1;"><g transform="translate(57.249416, 98.618688)"><path style="stroke:none" d="M 5.5625 0 L 0.296875 -20.109375 L 4.828125 -20.109375 L 8.796875 -3.265625 L 7.59375 -3.265625 L 11.765625 -20.109375 L 16.09375 -20.109375 L 20.28125 -3.265625 L 19.0625 -3.265625 L 23.03125 -20.109375 L 27.5625 -20.109375 L 22.296875 0 L 17.4375 0 L 13.234375 -16.203125 L 14.640625 -16.203125 L 10.421875 0 Z M 5.5625 0 "/></g></g><g style="fill:#000000;fill-opacity:1;"><g transform="translate(83.65528, 98.618688)"><path style="stroke:none" d="M 1.484375 0 L 1.484375 -14.734375 L 5.53125 -14.734375 L 5.53125 0 Z M 1.484375 -16.0625 L 1.484375 -20.109375 L 5.53125 -20.109375 L 5.53125 -16.0625 Z M 1.484375 -16.0625 "/></g></g><g style="fill:#000000;fill-opacity:1;"><g transform="translate(89.21681, 98.618688)"><path style="stroke:none" d="M 1.484375 0 L 1.484375 -14.734375 L 5.265625 -14.734375 L 5.265625 -11.828125 L 5.046875 -12.46875 C 5.390625 -13.351562 5.941406 -14.003906 6.703125 -14.421875 C 7.472656 -14.847656 8.367188 -15.0625 9.390625 -15.0625 C 10.503906 -15.0625 11.476562 -14.828125 12.3125 -14.359375 C 13.15625 -13.890625 13.8125 -13.238281 14.28125 -12.40625 C 14.75 -11.570312 14.984375 -10.597656 14.984375 -9.484375 L 14.984375 0 L 10.9375 0 L 10.9375 -8.609375 C 10.9375 -9.191406 10.820312 -9.6875 10.59375 -10.09375 C 10.375 -10.507812 10.0625 -10.832031 9.65625 -11.0625 C 9.25 -11.300781 8.773438 -11.421875 8.234375 -11.421875 C 7.710938 -11.421875 7.242188 -11.300781 6.828125 -11.0625 C 6.410156 -10.832031 6.085938 -10.507812 5.859375 -10.09375 C 5.640625 -9.6875 5.53125 -9.191406 5.53125 -8.609375 L 5.53125 0 Z M 1.484375 0 "/></g></g><g style="fill:#000000;fill-opacity:1;"><g transform="translate(103.931488, 98.618688)"><path style="stroke:none" d="M 8.421875 0.328125 C 6.984375 0.328125 5.695312 -0.015625 4.5625 -0.703125 C 3.425781 -1.390625 2.53125 -2.316406 1.875 -3.484375 C 1.21875 -4.648438 0.890625 -5.945312 0.890625 -7.375 C 0.890625 -8.8125 1.222656 -10.109375 1.890625 -11.265625 C 2.554688 -12.429688 3.457031 -13.351562 4.59375 -14.03125 C 5.726562 -14.71875 6.992188 -15.0625 8.390625 -15.0625 C 9.472656 -15.0625 10.429688 -14.859375 11.265625 -14.453125 C 12.109375 -14.046875 12.769531 -13.476562 13.25 -12.75 L 12.640625 -11.9375 L 12.640625 -20.4375 L 16.6875 -20.4375 L 16.6875 0 L 12.90625 0 L 12.90625 -2.703125 L 13.28125 -1.859375 C 12.78125 -1.140625 12.097656 -0.59375 11.234375 -0.21875 C 10.367188 0.144531 9.429688 0.328125 8.421875 0.328125 Z M 8.90625 -3.328125 C 9.644531 -3.328125 10.289062 -3.492188 10.84375 -3.828125 C 11.40625 -4.171875 11.84375 -4.648438 12.15625 -5.265625 C 12.476562 -5.878906 12.640625 -6.582031 12.640625 -7.375 C 12.640625 -8.164062 12.476562 -8.863281 12.15625 -9.46875 C 11.84375 -10.082031 11.40625 -10.5625 10.84375 -10.90625 C 10.289062 -11.25 9.644531 -11.421875 8.90625 -11.421875 C 8.164062 -11.421875 7.503906 -11.242188 6.921875 -10.890625 C 6.335938 -10.546875 5.882812 -10.070312 5.5625 -9.46875 C 5.238281 -8.863281 5.078125 -8.164062 5.078125 -7.375 C 5.078125 -6.582031 5.238281 -5.878906 5.5625 -5.265625 C 5.882812 -4.648438 6.335938 -4.171875 6.921875 -3.828125 C 7.503906 -3.492188 8.164062 -3.328125 8.90625 -3.328125 Z M 8.90625 -3.328125 "/></g></g><g style="fill:#000000;fill-opacity:1;"><g transform="translate(120.644192, 98.618688)"><path style="stroke:none" d="M 8.796875 0.328125 C 7.335938 0.328125 6.007812 -0.00390625 4.8125 -0.671875 C 3.625 -1.335938 2.671875 -2.25 1.953125 -3.40625 C 1.242188 -4.570312 0.890625 -5.894531 0.890625 -7.375 C 0.890625 -8.863281 1.242188 -10.179688 1.953125 -11.328125 C 2.671875 -12.484375 3.625 -13.394531 4.8125 -14.0625 C 6.007812 -14.726562 7.335938 -15.0625 8.796875 -15.0625 C 10.253906 -15.0625 11.578125 -14.726562 12.765625 -14.0625 C 13.953125 -13.394531 14.898438 -12.484375 15.609375 -11.328125 C 16.328125 -10.179688 16.6875 -8.863281 16.6875 -7.375 C 16.6875 -5.894531 16.328125 -4.570312 15.609375 -3.40625 C 14.898438 -2.25 13.953125 -1.335938 12.765625 -0.671875 C 11.578125 -0.00390625 10.253906 0.328125 8.796875 0.328125 Z M 8.796875 -3.328125 C 9.535156 -3.328125 10.179688 -3.492188 10.734375 -3.828125 C 11.285156 -4.171875 11.71875 -4.648438 12.03125 -5.265625 C 12.34375 -5.878906 12.5 -6.582031 12.5 -7.375 C 12.5 -8.164062 12.34375 -8.863281 12.03125 -9.46875 C 11.71875 -10.070312 11.285156 -10.546875 10.734375 -10.890625 C 10.179688 -11.242188 9.535156 -11.421875 8.796875 -11.421875 C 8.054688 -11.421875 7.40625 -11.242188 6.84375 -10.890625 C 6.289062 -10.546875 5.859375 -10.070312 5.546875 -9.46875 C 5.234375 -8.863281 5.078125 -8.164062 5.078125 -7.375 C 5.078125 -6.582031 5.234375 -5.878906 5.546875 -5.265625 C 5.859375 -4.648438 6.289062 -4.171875 6.84375 -3.828125 C 7.40625 -3.492188 8.054688 -3.328125 8.796875 -3.328125 Z M 8.796875 -3.328125 "/></g></g><g style="fill:#000000;fill-opacity:1;"><g transform="translate(136.492835, 98.618688)"><path style="stroke:none" d="M 5.375 0 L 0.296875 -14.734375 L 4.484375 -14.734375 L 8.046875 -4.109375 L 6.59375 -4.125 L 10.5625 -14.734375 L 14.0625 -14.734375 L 18.015625 -4.125 L 16.546875 -4.109375 L 20.109375 -14.734375 L 24.328125 -14.734375 L 19.21875 0 L 15.71875 0 L 11.609375 -11.390625 L 13.015625 -11.390625 L 8.890625 0 Z M 5.375 0 "/></g></g><g style="fill:#000000;fill-opacity:1;"><g transform="translate(159.65864, 98.618688)"><path style="stroke:none" d="M 7.265625 0.328125 C 5.640625 0.328125 4.226562 -0.0507812 3.03125 -0.8125 C 1.832031 -1.582031 1.019531 -2.617188 0.59375 -3.921875 L 3.5625 -5.3125 C 3.9375 -4.519531 4.445312 -3.898438 5.09375 -3.453125 C 5.75 -3.003906 6.472656 -2.78125 7.265625 -2.78125 C 7.835938 -2.78125 8.273438 -2.894531 8.578125 -3.125 C 8.890625 -3.363281 9.046875 -3.691406 9.046875 -4.109375 C 9.046875 -4.316406 8.988281 -4.5 8.875 -4.65625 C 8.769531 -4.8125 8.609375 -4.953125 8.390625 -5.078125 C 8.179688 -5.203125 7.914062 -5.3125 7.59375 -5.40625 L 5.078125 -6.109375 C 3.867188 -6.441406 2.941406 -6.988281 2.296875 -7.75 C 1.648438 -8.519531 1.328125 -9.425781 1.328125 -10.46875 C 1.328125 -11.394531 1.5625 -12.195312 2.03125 -12.875 C 2.5 -13.5625 3.15625 -14.097656 4 -14.484375 C 4.84375 -14.867188 5.8125 -15.0625 6.90625 -15.0625 C 8.351562 -15.0625 9.617188 -14.722656 10.703125 -14.046875 C 11.796875 -13.378906 12.566406 -12.429688 13.015625 -11.203125 L 10.015625 -9.796875 C 9.796875 -10.410156 9.398438 -10.898438 8.828125 -11.265625 C 8.265625 -11.640625 7.625 -11.828125 6.90625 -11.828125 C 6.382812 -11.828125 5.972656 -11.71875 5.671875 -11.5 C 5.378906 -11.28125 5.234375 -10.984375 5.234375 -10.609375 C 5.234375 -10.410156 5.285156 -10.226562 5.390625 -10.0625 C 5.503906 -9.90625 5.679688 -9.765625 5.921875 -9.640625 C 6.171875 -9.515625 6.472656 -9.394531 6.828125 -9.28125 L 9.1875 -8.59375 C 10.40625 -8.226562 11.335938 -7.679688 11.984375 -6.953125 C 12.628906 -6.222656 12.953125 -5.328125 12.953125 -4.265625 C 12.953125 -3.347656 12.710938 -2.546875 12.234375 -1.859375 C 11.765625 -1.179688 11.101562 -0.644531 10.25 -0.25 C 9.40625 0.132812 8.410156 0.328125 7.265625 0.328125 Z M 7.265625 0.328125 "/></g></g><g style="fill:#000000;fill-opacity:1;"><g transform="translate(60.23114, 111.773609)"><path style="stroke:none" d="M 1.210938 0 L 1.210938 -10.242188 L 5.515625 -10.242188 C 6.089844 -10.242188 6.59375 -10.136719 7.019531 -9.921875 C 7.445312 -9.707031 7.777344 -9.40625 8.007812 -9.019531 C 8.242188 -8.636719 8.359375 -8.1875 8.359375 -7.671875 C 8.359375 -7.140625 8.230469 -6.671875 7.96875 -6.261719 C 7.707031 -5.855469 7.332031 -5.546875 6.847656 -5.335938 L 6.832031 -5.664062 C 7.238281 -5.519531 7.582031 -5.3125 7.871094 -5.046875 C 8.160156 -4.78125 8.382812 -4.472656 8.539062 -4.117188 C 8.695312 -3.765625 8.773438 -3.386719 8.773438 -2.984375 C 8.773438 -2.066406 8.480469 -1.339844 7.898438 -0.804688 C 7.316406 -0.269531 6.527344 0 5.527344 0 Z M 2.308594 -1.03125 L 5.527344 -1.03125 C 6.179688 -1.03125 6.699219 -1.203125 7.089844 -1.546875 C 7.476562 -1.890625 7.671875 -2.363281 7.671875 -2.96875 C 7.671875 -3.566406 7.476562 -4.039062 7.089844 -4.394531 C 6.699219 -4.746094 6.179688 -4.921875 5.527344 -4.921875 L 2.308594 -4.921875 Z M 2.308594 -5.914062 L 5.429688 -5.914062 C 5.980469 -5.914062 6.421875 -6.074219 6.757812 -6.394531 C 7.09375 -6.714844 7.261719 -7.128906 7.261719 -7.632812 C 7.261719 -8.144531 7.09375 -8.535156 6.757812 -8.808594 C 6.421875 -9.078125 5.980469 -9.210938 5.429688 -9.210938 L 2.308594 -9.210938 Z M 2.308594 -5.914062 "/></g></g><g style="fill:#000000;fill-opacity:1;"><g transform="translate(69.381997, 111.773609)"><path style="stroke:none" d="M 1.058594 0 L 1.058594 -7.371094 L 2.089844 -7.371094 L 2.089844 0 Z M 1.058594 -8.730469 L 1.058594 -10.242188 L 2.089844 -10.242188 L 2.089844 -8.730469 Z M 1.058594 -8.730469 "/></g></g><g style="fill:#000000;fill-opacity:1;"><g transform="translate(72.157237, 111.773609)"><path style="stroke:none" d="M 3.617188 0.164062 C 2.910156 0.164062 2.292969 -0.015625 1.761719 -0.371094 C 1.226562 -0.730469 0.84375 -1.214844 0.605469 -1.828125 L 1.472656 -2.242188 C 1.683594 -1.792969 1.976562 -1.433594 2.359375 -1.167969 C 2.738281 -0.902344 3.15625 -0.769531 3.617188 -0.769531 C 4.054688 -0.769531 4.425781 -0.878906 4.730469 -1.09375 C 5.03125 -1.308594 5.183594 -1.589844 5.183594 -1.9375 C 5.183594 -2.195312 5.109375 -2.398438 4.964844 -2.550781 C 4.816406 -2.703125 4.648438 -2.820312 4.453125 -2.902344 C 4.261719 -2.984375 4.09375 -3.042969 3.945312 -3.078125 L 2.886719 -3.382812 C 2.210938 -3.574219 1.71875 -3.84375 1.417969 -4.195312 C 1.113281 -4.542969 0.960938 -4.945312 0.960938 -5.402344 C 0.960938 -5.835938 1.074219 -6.210938 1.292969 -6.53125 C 1.511719 -6.851562 1.808594 -7.097656 2.1875 -7.273438 C 2.5625 -7.449219 2.980469 -7.535156 3.4375 -7.535156 C 4.0625 -7.535156 4.625 -7.371094 5.136719 -7.046875 C 5.644531 -6.722656 6.003906 -6.269531 6.214844 -5.691406 L 5.335938 -5.28125 C 5.152344 -5.691406 4.886719 -6.015625 4.542969 -6.25 C 4.199219 -6.484375 3.816406 -6.601562 3.394531 -6.601562 C 2.984375 -6.601562 2.652344 -6.496094 2.40625 -6.285156 C 2.160156 -6.074219 2.035156 -5.808594 2.035156 -5.484375 C 2.035156 -5.238281 2.097656 -5.042969 2.226562 -4.894531 C 2.355469 -4.75 2.503906 -4.636719 2.675781 -4.566406 C 2.84375 -4.492188 2.992188 -4.4375 3.121094 -4.398438 L 4.34375 -4.042969 C 4.941406 -3.867188 5.40625 -3.597656 5.742188 -3.230469 C 6.074219 -2.863281 6.242188 -2.433594 6.242188 -1.9375 C 6.242188 -1.535156 6.128906 -1.171875 5.90625 -0.851562 C 5.679688 -0.53125 5.371094 -0.28125 4.976562 -0.101562 C 4.582031 0.0742188 4.128906 0.164062 3.617188 0.164062 Z M 3.617188 0.164062 "/></g></g><g style="fill:#000000;fill-opacity:1;"><g transform="translate(78.779832, 111.773609)"><path style="stroke:none" d="M 1.058594 0 L 1.058594 -10.410156 L 2.089844 -10.410156 L 2.089844 -5.941406 L 1.855469 -5.996094 C 2.039062 -6.472656 2.339844 -6.847656 2.757812 -7.121094 C 3.175781 -7.398438 3.65625 -7.535156 4.207031 -7.535156 C 4.730469 -7.535156 5.199219 -7.414062 5.617188 -7.175781 C 6.035156 -6.9375 6.363281 -6.613281 6.605469 -6.195312 C 6.851562 -5.777344 6.972656 -5.308594 6.972656 -4.785156 L 6.972656 0 L 5.941406 0 L 5.941406 -4.386719 C 5.941406 -4.835938 5.859375 -5.214844 5.691406 -5.527344 C 5.527344 -5.839844 5.300781 -6.078125 5.011719 -6.25 C 4.722656 -6.417969 4.394531 -6.503906 4.027344 -6.503906 C 3.660156 -6.503906 3.332031 -6.417969 3.039062 -6.25 C 2.746094 -6.078125 2.515625 -5.835938 2.34375 -5.519531 C 2.175781 -5.203125 2.089844 -4.828125 2.089844 -4.386719 L 2.089844 0 Z M 1.058594 0 "/></g></g><g style="fill:#000000;fill-opacity:1;"><g transform="translate(86.281822, 111.773609)"><path style="stroke:none" d="M 4.511719 0.164062 C 3.8125 0.164062 3.179688 -0.00390625 2.613281 -0.335938 C 2.042969 -0.671875 1.59375 -1.128906 1.257812 -1.710938 C 0.921875 -2.292969 0.757812 -2.957031 0.757812 -3.699219 C 0.757812 -4.433594 0.921875 -5.085938 1.25 -5.664062 C 1.582031 -6.242188 2.027344 -6.699219 2.59375 -7.03125 C 3.15625 -7.367188 3.796875 -7.535156 4.511719 -7.535156 C 5.226562 -7.535156 5.863281 -7.371094 6.429688 -7.039062 C 6.992188 -6.710938 7.4375 -6.257812 7.761719 -5.679688 C 8.085938 -5.101562 8.25 -4.441406 8.25 -3.699219 C 8.25 -2.945312 8.082031 -2.28125 7.742188 -1.699219 C 7.402344 -1.117188 6.949219 -0.660156 6.386719 -0.328125 C 5.824219 0 5.199219 0.164062 4.511719 0.164062 Z M 4.511719 -0.867188 C 5.003906 -0.867188 5.453125 -0.988281 5.851562 -1.238281 C 6.25 -1.484375 6.566406 -1.824219 6.800781 -2.253906 C 7.03125 -2.6875 7.148438 -3.167969 7.148438 -3.699219 C 7.148438 -4.230469 7.03125 -4.707031 6.800781 -5.128906 C 6.566406 -5.550781 6.25 -5.886719 5.851562 -6.132812 C 5.453125 -6.378906 5.003906 -6.503906 4.511719 -6.503906 C 4.015625 -6.503906 3.566406 -6.378906 3.167969 -6.132812 C 2.769531 -5.886719 2.453125 -5.550781 2.214844 -5.128906 C 1.976562 -4.707031 1.855469 -4.230469 1.855469 -3.699219 C 1.855469 -3.167969 1.976562 -2.6875 2.214844 -2.253906 C 2.453125 -1.824219 2.769531 -1.484375 3.167969 -1.238281 C 3.566406 -0.988281 4.015625 -0.867188 4.511719 -0.867188 Z M 4.511719 -0.867188 "/></g></g><g style="fill:#000000;fill-opacity:1;"><g transform="translate(94.910538, 111.773609)"><path style="stroke:none" d="M 1.058594 2.75 L 1.058594 -7.371094 L 2.089844 -7.371094 L 2.089844 -5.71875 L 1.925781 -6.007812 C 2.21875 -6.476562 2.609375 -6.847656 3.101562 -7.121094 C 3.589844 -7.398438 4.152344 -7.535156 4.785156 -7.535156 C 5.480469 -7.535156 6.101562 -7.367188 6.648438 -7.03125 C 7.195312 -6.699219 7.625 -6.242188 7.941406 -5.664062 C 8.257812 -5.085938 8.414062 -4.425781 8.414062 -3.683594 C 8.414062 -2.953125 8.257812 -2.292969 7.941406 -1.710938 C 7.625 -1.128906 7.195312 -0.671875 6.648438 -0.335938 C 6.101562 -0.00390625 5.480469 0.164062 4.785156 0.164062 C 4.152344 0.164062 3.582031 0.0195312 3.074219 -0.269531 C 2.5625 -0.558594 2.183594 -0.96875 1.925781 -1.5 L 2.089844 -1.648438 L 2.089844 2.75 Z M 4.730469 -0.867188 C 5.226562 -0.867188 5.667969 -0.988281 6.058594 -1.238281 C 6.445312 -1.484375 6.753906 -1.820312 6.976562 -2.25 C 7.203125 -2.675781 7.316406 -3.152344 7.316406 -3.683594 C 7.316406 -4.226562 7.203125 -4.707031 6.976562 -5.128906 C 6.753906 -5.550781 6.445312 -5.886719 6.058594 -6.132812 C 5.667969 -6.378906 5.226562 -6.503906 4.730469 -6.503906 C 4.234375 -6.503906 3.789062 -6.378906 3.390625 -6.132812 C 2.992188 -5.886719 2.675781 -5.546875 2.441406 -5.121094 C 2.207031 -4.695312 2.089844 -4.214844 2.089844 -3.683594 C 2.089844 -3.152344 2.207031 -2.675781 2.441406 -2.25 C 2.675781 -1.820312 2.992188 -1.484375 3.390625 -1.238281 C 3.789062 -0.988281 4.234375 -0.867188 4.730469 -0.867188 Z M 4.730469 -0.867188 "/></g></g><g style="fill:#000000;fill-opacity:1;"><g transform="translate(103.704143, 111.773609)"><path style="stroke:none" d="M 3.617188 0.164062 C 2.910156 0.164062 2.292969 -0.015625 1.761719 -0.371094 C 1.226562 -0.730469 0.84375 -1.214844 0.605469 -1.828125 L 1.472656 -2.242188 C 1.683594 -1.792969 1.976562 -1.433594 2.359375 -1.167969 C 2.738281 -0.902344 3.15625 -0.769531 3.617188 -0.769531 C 4.054688 -0.769531 4.425781 -0.878906 4.730469 -1.09375 C 5.03125 -1.308594 5.183594 -1.589844 5.183594 -1.9375 C 5.183594 -2.195312 5.109375 -2.398438 4.964844 -2.550781 C 4.816406 -2.703125 4.648438 -2.820312 4.453125 -2.902344 C 4.261719 -2.984375 4.09375 -3.042969 3.945312 -3.078125 L 2.886719 -3.382812 C 2.210938 -3.574219 1.71875 -3.84375 1.417969 -4.195312 C 1.113281 -4.542969 0.960938 -4.945312 0.960938 -5.402344 C 0.960938 -5.835938 1.074219 -6.210938 1.292969 -6.53125 C 1.511719 -6.851562 1.808594 -7.097656 2.1875 -7.273438 C 2.5625 -7.449219 2.980469 -7.535156 3.4375 -7.535156 C 4.0625 -7.535156 4.625 -7.371094 5.136719 -7.046875 C 5.644531 -6.722656 6.003906 -6.269531 6.214844 -5.691406 L 5.335938 -5.28125 C 5.152344 -5.691406 4.886719 -6.015625 4.542969 -6.25 C 4.199219 -6.484375 3.816406 -6.601562 3.394531 -6.601562 C 2.984375 -6.601562 2.652344 -6.496094 2.40625 -6.285156 C 2.160156 -6.074219 2.035156 -5.808594 2.035156 -5.484375 C 2.035156 -5.238281 2.097656 -5.042969 2.226562 -4.894531 C 2.355469 -4.75 2.503906 -4.636719 2.675781 -4.566406 C 2.84375 -4.492188 2.992188 -4.4375 3.121094 -4.398438 L 4.34375 -4.042969 C 4.941406 -3.867188 5.40625 -3.597656 5.742188 -3.230469 C 6.074219 -2.863281 6.242188 -2.433594 6.242188 -1.9375 C 6.242188 -1.535156 6.128906 -1.171875 5.90625 -0.851562 C 5.679688 -0.53125 5.371094 -0.28125 4.976562 -0.101562 C 4.582031 0.0742188 4.128906 0.164062 3.617188 0.164062 Z M 3.617188 0.164062 "/></g></g><g style="fill:#000000;fill-opacity:1;"><g transform="translate(114.261725, 111.773609)"><path style="stroke:none" d="M 4.660156 0.164062 C 4.011719 0.164062 3.417969 0.0429688 2.886719 -0.207031 C 2.355469 -0.453125 1.90625 -0.785156 1.539062 -1.203125 C 1.171875 -1.621094 0.910156 -2.082031 0.757812 -2.585938 L 1.746094 -2.957031 C 1.984375 -2.257812 2.355469 -1.730469 2.859375 -1.367188 C 3.363281 -1.007812 3.964844 -0.824219 4.660156 -0.824219 C 5.101562 -0.824219 5.488281 -0.894531 5.824219 -1.039062 C 6.15625 -1.179688 6.417969 -1.378906 6.601562 -1.636719 C 6.785156 -1.894531 6.875 -2.191406 6.875 -2.53125 C 6.875 -3.035156 6.738281 -3.421875 6.460938 -3.699219 C 6.1875 -3.972656 5.792969 -4.183594 5.28125 -4.332031 L 3.4375 -4.882812 C 2.714844 -5.09375 2.15625 -5.445312 1.765625 -5.941406 C 1.378906 -6.433594 1.183594 -7 1.183594 -7.632812 C 1.183594 -8.171875 1.316406 -8.652344 1.582031 -9.066406 C 1.847656 -9.484375 2.210938 -9.8125 2.675781 -10.050781 C 3.136719 -10.289062 3.660156 -10.410156 4.25 -10.410156 C 4.863281 -10.410156 5.414062 -10.296875 5.90625 -10.070312 C 6.394531 -9.847656 6.8125 -9.550781 7.148438 -9.183594 C 7.488281 -8.816406 7.730469 -8.410156 7.878906 -7.960938 L 6.917969 -7.574219 C 6.695312 -8.179688 6.355469 -8.640625 5.890625 -8.949219 C 5.429688 -9.261719 4.886719 -9.417969 4.261719 -9.417969 C 3.867188 -9.417969 3.523438 -9.351562 3.222656 -9.210938 C 2.925781 -9.074219 2.695312 -8.878906 2.53125 -8.621094 C 2.363281 -8.363281 2.28125 -8.0625 2.28125 -7.714844 C 2.28125 -7.292969 2.414062 -6.914062 2.679688 -6.578125 C 2.945312 -6.246094 3.355469 -5.996094 3.90625 -5.828125 L 5.527344 -5.347656 C 6.335938 -5.109375 6.945312 -4.765625 7.355469 -4.316406 C 7.769531 -3.867188 7.976562 -3.304688 7.976562 -2.625 C 7.976562 -2.078125 7.835938 -1.59375 7.554688 -1.175781 C 7.277344 -0.757812 6.886719 -0.429688 6.386719 -0.191406 C 5.886719 0.046875 5.3125 0.164062 4.660156 0.164062 Z M 4.660156 0.164062 "/></g></g><g style="fill:#000000;fill-opacity:1;"><g transform="translate(122.766775, 111.773609)"><path style="stroke:none" d="M 3.878906 0.0820312 C 3.21875 0.0820312 2.707031 -0.109375 2.351562 -0.496094 C 1.992188 -0.878906 1.816406 -1.429688 1.816406 -2.144531 L 1.816406 -6.339844 L 0.453125 -6.339844 L 0.453125 -7.371094 L 0.796875 -7.371094 C 1.109375 -7.371094 1.355469 -7.472656 1.539062 -7.679688 C 1.722656 -7.886719 1.816406 -8.144531 1.816406 -8.457031 L 1.816406 -9.074219 L 2.847656 -9.074219 L 2.847656 -7.371094 L 4.46875 -7.371094 L 4.46875 -6.339844 L 2.847656 -6.339844 L 2.847656 -2.144531 C 2.847656 -1.898438 2.882812 -1.679688 2.957031 -1.492188 C 3.03125 -1.304688 3.15625 -1.15625 3.335938 -1.046875 C 3.511719 -0.933594 3.753906 -0.878906 4.054688 -0.878906 C 4.128906 -0.878906 4.214844 -0.882812 4.316406 -0.894531 C 4.417969 -0.902344 4.503906 -0.910156 4.578125 -0.921875 L 4.578125 0 C 4.46875 0.0273438 4.34375 0.046875 4.207031 0.0625 C 4.070312 0.0742188 3.960938 0.0820312 3.878906 0.0820312 Z M 3.878906 0.0820312 "/></g></g><g style="fill:#000000;fill-opacity:1;"><g transform="translate(127.451777, 111.773609)"><path style="stroke:none" d="M 4.511719 0.164062 C 3.8125 0.164062 3.179688 -0.00390625 2.613281 -0.335938 C 2.042969 -0.671875 1.59375 -1.128906 1.257812 -1.710938 C 0.921875 -2.292969 0.757812 -2.957031 0.757812 -3.699219 C 0.757812 -4.433594 0.921875 -5.085938 1.25 -5.664062 C 1.582031 -6.242188 2.027344 -6.699219 2.59375 -7.03125 C 3.15625 -7.367188 3.796875 -7.535156 4.511719 -7.535156 C 5.226562 -7.535156 5.863281 -7.371094 6.429688 -7.039062 C 6.992188 -6.710938 7.4375 -6.257812 7.761719 -5.679688 C 8.085938 -5.101562 8.25 -4.441406 8.25 -3.699219 C 8.25 -2.945312 8.082031 -2.28125 7.742188 -1.699219 C 7.402344 -1.117188 6.949219 -0.660156 6.386719 -0.328125 C 5.824219 0 5.199219 0.164062 4.511719 0.164062 Z M 4.511719 -0.867188 C 5.003906 -0.867188 5.453125 -0.988281 5.851562 -1.238281 C 6.25 -1.484375 6.566406 -1.824219 6.800781 -2.253906 C 7.03125 -2.6875 7.148438 -3.167969 7.148438 -3.699219 C 7.148438 -4.230469 7.03125 -4.707031 6.800781 -5.128906 C 6.566406 -5.550781 6.25 -5.886719 5.851562 -6.132812 C 5.453125 -6.378906 5.003906 -6.503906 4.511719 -6.503906 C 4.015625 -6.503906 3.566406 -6.378906 3.167969 -6.132812 C 2.769531 -5.886719 2.453125 -5.550781 2.214844 -5.128906 C 1.976562 -4.707031 1.855469 -4.230469 1.855469 -3.699219 C 1.855469 -3.167969 1.976562 -2.6875 2.214844 -2.253906 C 2.453125 -1.824219 2.769531 -1.484375 3.167969 -1.238281 C 3.566406 -0.988281 4.015625 -0.867188 4.511719 -0.867188 Z M 4.511719 -0.867188 "/></g></g><g style="fill:#000000;fill-opacity:1;"><g transform="translate(136.080493, 111.773609)"><path style="stroke:none" d="M 1.058594 0 L 1.058594 -7.371094 L 2.089844 -7.371094 L 2.089844 -6.160156 L 1.953125 -6.339844 C 2.125 -6.6875 2.390625 -6.960938 2.742188 -7.164062 C 3.097656 -7.367188 3.523438 -7.464844 4.027344 -7.464844 L 4.496094 -7.464844 L 4.496094 -6.433594 L 3.851562 -6.433594 C 3.316406 -6.433594 2.890625 -6.269531 2.570312 -5.941406 C 2.25 -5.609375 2.089844 -5.140625 2.089844 -4.539062 L 2.089844 0 Z M 1.058594 0 "/></g></g><g style="fill:#000000;fill-opacity:1;"><g transform="translate(140.353459, 111.773609)"><path style="stroke:none" d="M 3.878906 0.0820312 C 3.21875 0.0820312 2.707031 -0.109375 2.351562 -0.496094 C 1.992188 -0.878906 1.816406 -1.429688 1.816406 -2.144531 L 1.816406 -6.339844 L 0.453125 -6.339844 L 0.453125 -7.371094 L 0.796875 -7.371094 C 1.109375 -7.371094 1.355469 -7.472656 1.539062 -7.679688 C 1.722656 -7.886719 1.816406 -8.144531 1.816406 -8.457031 L 1.816406 -9.074219 L 2.847656 -9.074219 L 2.847656 -7.371094 L 4.46875 -7.371094 L 4.46875 -6.339844 L 2.847656 -6.339844 L 2.847656 -2.144531 C 2.847656 -1.898438 2.882812 -1.679688 2.957031 -1.492188 C 3.03125 -1.304688 3.15625 -1.15625 3.335938 -1.046875 C 3.511719 -0.933594 3.753906 -0.878906 4.054688 -0.878906 C 4.128906 -0.878906 4.214844 -0.882812 4.316406 -0.894531 C 4.417969 -0.902344 4.503906 -0.910156 4.578125 -0.921875 L 4.578125 0 C 4.46875 0.0273438 4.34375 0.046875 4.207031 0.0625 C 4.070312 0.0742188 3.960938 0.0820312 3.878906 0.0820312 Z M 3.878906 0.0820312 "/></g></g><g style="fill:#000000;fill-opacity:1;"><g transform="translate(145.313454, 111.773609)"><path style="stroke:none" d="M 1.816406 0 L 1.816406 -6.339844 L 0.34375 -6.339844 L 0.34375 -7.371094 L 1.816406 -7.371094 L 1.816406 -8.03125 C 1.816406 -8.542969 1.929688 -8.976562 2.160156 -9.328125 C 2.386719 -9.683594 2.691406 -9.949219 3.066406 -10.132812 C 3.441406 -10.316406 3.84375 -10.410156 4.277344 -10.410156 C 4.367188 -10.410156 4.472656 -10.402344 4.59375 -10.386719 C 4.710938 -10.375 4.808594 -10.359375 4.882812 -10.339844 L 4.882812 -9.40625 C 4.816406 -9.421875 4.730469 -9.433594 4.621094 -9.4375 C 4.511719 -9.445312 4.433594 -9.445312 4.386719 -9.445312 C 3.945312 -9.445312 3.578125 -9.339844 3.285156 -9.128906 C 2.992188 -8.917969 2.847656 -8.550781 2.847656 -8.03125 L 2.847656 -7.371094 L 4.648438 -7.371094 L 4.648438 -6.339844 L 2.847656 -6.339844 L 2.847656 0 Z M 1.816406 0 "/></g></g><g style="fill:#000000;fill-opacity:1;"><g transform="translate(149.929657, 111.773609)"><path style="stroke:none" d="M 4.511719 0.164062 C 3.8125 0.164062 3.179688 -0.00390625 2.613281 -0.335938 C 2.042969 -0.671875 1.59375 -1.128906 1.257812 -1.710938 C 0.921875 -2.292969 0.757812 -2.957031 0.757812 -3.699219 C 0.757812 -4.433594 0.921875 -5.085938 1.25 -5.664062 C 1.582031 -6.242188 2.027344 -6.699219 2.59375 -7.03125 C 3.15625 -7.367188 3.796875 -7.535156 4.511719 -7.535156 C 5.226562 -7.535156 5.863281 -7.371094 6.429688 -7.039062 C 6.992188 -6.710938 7.4375 -6.257812 7.761719 -5.679688 C 8.085938 -5.101562 8.25 -4.441406 8.25 -3.699219 C 8.25 -2.945312 8.082031 -2.28125 7.742188 -1.699219 C 7.402344 -1.117188 6.949219 -0.660156 6.386719 -0.328125 C 5.824219 0 5.199219 0.164062 4.511719 0.164062 Z M 4.511719 -0.867188 C 5.003906 -0.867188 5.453125 -0.988281 5.851562 -1.238281 C 6.25 -1.484375 6.566406 -1.824219 6.800781 -2.253906 C 7.03125 -2.6875 7.148438 -3.167969 7.148438 -3.699219 C 7.148438 -4.230469 7.03125 -4.707031 6.800781 -5.128906 C 6.566406 -5.550781 6.25 -5.886719 5.851562 -6.132812 C 5.453125 -6.378906 5.003906 -6.503906 4.511719 -6.503906 C 4.015625 -6.503906 3.566406 -6.378906 3.167969 -6.132812 C 2.769531 -5.886719 2.453125 -5.550781 2.214844 -5.128906 C 1.976562 -4.707031 1.855469 -4.230469 1.855469 -3.699219 C 1.855469 -3.167969 1.976562 -2.6875 2.214844 -2.253906 C 2.453125 -1.824219 2.769531 -1.484375 3.167969 -1.238281 C 3.566406 -0.988281 4.015625 -0.867188 4.511719 -0.867188 Z M 4.511719 -0.867188 "/></g></g><g style="fill:#000000;fill-opacity:1;"><g transform="translate(158.558374, 111.773609)"><path style="stroke:none" d="M 1.058594 0 L 1.058594 -7.371094 L 2.089844 -7.371094 L 2.089844 -6.160156 L 1.953125 -6.339844 C 2.125 -6.6875 2.390625 -6.960938 2.742188 -7.164062 C 3.097656 -7.367188 3.523438 -7.464844 4.027344 -7.464844 L 4.496094 -7.464844 L 4.496094 -6.433594 L 3.851562 -6.433594 C 3.316406 -6.433594 2.890625 -6.269531 2.570312 -5.941406 C 2.25 -5.609375 2.089844 -5.140625 2.089844 -4.539062 L 2.089844 0 Z M 1.058594 0 "/></g></g><g style="fill:#000000;fill-opacity:1;"><g transform="translate(162.831339, 111.773609)"><path style="stroke:none" d="M 4.386719 0.164062 C 3.699219 0.164062 3.078125 -0.00390625 2.53125 -0.335938 C 1.980469 -0.671875 1.546875 -1.128906 1.230469 -1.710938 C 0.914062 -2.292969 0.757812 -2.953125 0.757812 -3.683594 C 0.757812 -4.425781 0.914062 -5.085938 1.230469 -5.664062 C 1.546875 -6.242188 1.976562 -6.699219 2.523438 -7.03125 C 3.070312 -7.367188 3.691406 -7.535156 4.386719 -7.535156 C 5.019531 -7.535156 5.582031 -7.398438 6.078125 -7.121094 C 6.574219 -6.847656 6.960938 -6.476562 7.246094 -6.007812 L 7.082031 -5.71875 L 7.082031 -10.410156 L 8.113281 -10.410156 L 8.113281 0 L 7.082031 0 L 7.082031 -1.648438 L 7.246094 -1.5 C 6.988281 -0.96875 6.605469 -0.558594 6.097656 -0.269531 C 5.589844 0.0195312 5.019531 0.164062 4.386719 0.164062 Z M 4.441406 -0.867188 C 4.9375 -0.867188 5.382812 -0.988281 5.78125 -1.238281 C 6.179688 -1.484375 6.496094 -1.820312 6.730469 -2.25 C 6.964844 -2.675781 7.082031 -3.152344 7.082031 -3.683594 C 7.082031 -4.214844 6.964844 -4.695312 6.730469 -5.121094 C 6.496094 -5.546875 6.179688 -5.886719 5.78125 -6.132812 C 5.382812 -6.378906 4.9375 -6.503906 4.441406 -6.503906 C 3.957031 -6.503906 3.515625 -6.378906 3.121094 -6.132812 C 2.726562 -5.886719 2.417969 -5.550781 2.191406 -5.128906 C 1.96875 -4.707031 1.855469 -4.226562 1.855469 -3.683594 C 1.855469 -3.152344 1.96875 -2.675781 2.191406 -2.25 C 2.417969 -1.820312 2.726562 -1.484375 3.113281 -1.238281 C 3.503906 -0.988281 3.945312 -0.867188 4.441406 -0.867188 Z M 4.441406 -0.867188 "/></g></g></g></svg>